<svg id="Logo_FINAL" data-name="Logo FINAL" xmlns="http://www.w3.org/2000/svg" viewBox="0 0 500.1 112.59"><defs><style>.cls-1{fill:#33302e;}</style></defs><title>seat-logo</title><path class="cls-1" d="M413.3,42.55v14.2H368v-4c0-6.2,1-10.3,8.3-10.3h37Zm-39.8-8.8c-11.9,0-17.4,6.3-17.4,16.5v28.6H368V65.65h45.3v13.1h11.9v-45Zm66.4,0v8.8h28v36.2h11.9V42.55h28v-8.8ZM279.7,61.45c0,6.3,1.3,8.6,8.3,8.6h49.7v8.8H285.2c-11.9,0-17.5-5.4-17.5-15.5V33.75h69.9v8.8h-58v8.8h55.6V60H279.6v1.5Zm-85.2-12c-3.7-.3-4.3-1.6-4.3-3.8,0-2,1.1-3.2,3.9-3.2H249v-8.7H192.7c-8,0-13.5,3.1-13.5,12s4.1,12,13.3,12.8l44.5,3.7c3.4.3,4.4,1.4,4.4,3.9,0,2.3-1,3.8-4.1,3.8H181.4v8.8h56.8c9.8,0,14.1-3.9,14.1-13.1,0-8.4-3.9-11.8-13.4-12.6Z" transform="translate(-7.7)"/><path class="cls-1" d="M7.9,40.85c.1-4.1.4-14,.6-19.8.3-7.5,1.8-12,4.9-14.8,4.3-3.8,9.2-4.7,21.1-5.3C62-.55,90-.35,125.1,2.15c3.7.3,5,.9,5.8,1.4,1.6,1.1,1.7,2.3,2.2,8.5.2,3.6.7,13.1,1,18.3-12.1-.6-32.6-1.7-50.5-1.9s-34,.1-35.9.4c-3.9.5-5.7,2.3-6.2,3.1l92.9,17.2v13.5Z" transform="translate(-7.7)"/><path class="cls-1" d="M7.8,47.45,134,71c-.1,3.4-.4,14.3-.6,20.6-.3,7.5-1.8,12-4.9,14.8-4.3,3.8-9.2,4.7-21.1,5.3-27.5,1.5-55.5,1.3-90.6-1.2-3.7-.3-5-.9-5.8-1.4-1.6-1.1-1.7-2.3-2.2-8.5-.3-4.2-.9-16.5-1.1-20.5C24,81.15,49,82,69.4,82c5.1,0,18.4.2,22,.2,2.8,0,6.5-.8,8.4-3.7l-92-15.8Z" transform="translate(-7.7)"/></svg>