<?xml version="1.0" standalone="no"?>
<!DOCTYPE svg PUBLIC "-//W3C//DTD SVG 20010904//EN"
 "http://www.w3.org/TR/2001/REC-SVG-20010904/DTD/svg10.dtd">
<svg version="1.0" xmlns="http://www.w3.org/2000/svg"
 width="207.000000pt" height="158.000000pt" viewBox="0 0 207.000000 158.000000"
 preserveAspectRatio="xMidYMid meet">
<metadata>
Created by potrace 1.16, written by Peter Selinger 2001-2019
</metadata>
<g transform="translate(0.000000,158.000000) scale(0.100000,-0.100000)"
fill="#00AEEF" stroke="none">
<path d="M1531 1524 c-19 -8 -40 -19 -47 -25 -7 -6 -39 -12 -71 -14 -32 -2
-88 -12 -124 -23 -46 -13 -73 -16 -90 -10 -29 11 -83 2 -115 -18 -28 -19 -54
-72 -54 -111 0 -39 33 -89 71 -109 42 -21 112 -14 143 15 58 54 71 15 70 -199
-1 -221 -26 -402 -66 -483 l-18 -37 -170 0 c-168 0 -170 0 -175 22 -3 13 -16
77 -29 143 -21 104 -22 122 -10 139 22 31 17 81 -10 113 l-24 28 -206 3 -206
3 0 50 0 49 -165 0 -165 0 0 -85 c0 -47 4 -85 9 -85 4 0 11 -16 14 -36 3 -20
13 -44 21 -53 13 -15 12 -32 -13 -159 -16 -84 -34 -149 -44 -160 -23 -25 -21
-78 3 -102 14 -14 33 -20 64 -20 l43 0 7 -51 c15 -110 94 -212 194 -250 81
-30 187 -24 261 16 90 49 148 134 158 231 l6 54 233 0 233 0 7 -47 c16 -118
101 -224 205 -258 73 -24 177 -17 245 18 95 48 164 153 164 249 l0 38 60 0
c72 0 100 21 100 74 0 26 -7 41 -31 60 -23 20 -46 64 -94 180 -84 209 -166
345 -272 457 l-34 36 39 6 c44 8 64 26 88 82 35 85 9 245 -44 274 -29 16 -121
13 -161 -5z m-1021 -1114 c10 -5 22 -23 28 -39 13 -36 -2 -69 -41 -91 -24 -13
-30 -13 -54 0 -43 24 -57 62 -39 99 21 40 65 53 106 31z m1105 -15 c28 -27 30
-42 14 -78 -11 -25 -47 -47 -75 -47 -25 0 -64 47 -64 76 0 66 79 96 125 49z"/>
</g>
</svg>
