<svg xmlns="http://www.w3.org/2000/svg" width="26" height="26" viewBox="0 0 26 26"><g fill="#fff" transform="translate(5 -1031.362)"><circle cx="8" cy="1044.362" r="13" fill="#ffa40b" fill-rule="evenodd"/><path fill="#ff7712" style="line-height:normal;text-indent:0;text-align:start;text-decoration-line:none;text-decoration-style:solid;text-decoration-color:#000;text-transform:none;block-progression:tb;isolation:auto;mix-blend-mode:normal;marker:none" d="M 14.152344 25.939453 A 12.999989 12.999989 0 0 0 15.208984 25.810547 A 12.999989 12.999989 0 0 0 16.476562 25.525391 A 12.999989 12.999989 0 0 0 17.710938 25.117188 A 12.999989 12.999989 0 0 0 18.896484 24.585938 A 12.999989 12.999989 0 0 0 20.023438 23.939453 A 12.999989 12.999989 0 0 0 21.080078 23.183594 A 12.999989 12.999989 0 0 0 22.056641 22.326172 A 12.999989 12.999989 0 0 0 22.943359 21.375 A 12.999989 12.999989 0 0 0 23.728516 20.339844 A 12.999989 12.999989 0 0 0 24.408203 19.232422 A 12.999989 12.999989 0 0 0 24.974609 18.0625 A 12.999989 12.999989 0 0 0 25.419922 16.841797 A 12.999989 12.999989 0 0 0 25.740234 15.582031 A 12.999989 12.999989 0 0 0 25.789062 15.253906 L 20.785156 10.25 C 20.779687 10.244529 20.773153 10.243503 20.767578 10.238281 C 20.669195 10.145978 20.556591 10.088158 20.453125 10.039062 C 20.265977 9.951063 20.06059 9.8872781 19.828125 9.8300781 C 19.363203 9.7156781 18.796066 9.6302812 18.222656 9.5507812 C 18.210834 9.5491319 18.201278 9.5485169 18.189453 9.546875 L 13.607422 4.9648438 C 13.579033 4.9364462 13.53866 4.915053 13.505859 4.8886719 C 13.474231 4.8631755 13.447457 4.8358139 13.410156 4.8144531 C 13.391413 4.8037053 13.370078 4.7963866 13.349609 4.7871094 C 13.26526 4.7487923 13.171051 4.7197392 13.048828 4.71875 C 12.715215 4.71875 12.544922 4.8928687 12.402344 5.0429688 C 12.259766 5.1928687 12.138101 5.3693656 12.011719 5.5722656 C 11.75896 5.9777656 11.501076 6.4885125 11.248047 7.0078125 C 10.995017 7.5270125 10.747661 8.0528375 10.537109 8.4609375 C 10.431841 8.6649375 10.335227 8.8404906 10.257812 8.9628906 C 10.212352 9.0348906 10.16884 9.0867281 10.148438 9.1113281 C 10.118387 9.1233281 10.055478 9.1470156 9.9726562 9.1660156 C 9.8313993 9.1990156 9.6339537 9.2349781 9.40625 9.2675781 C 8.9508426 9.3335781 8.371497 9.3964969 7.796875 9.4667969 C 7.222252 9.5367969 6.6542192 9.6139031 6.1875 9.7207031 C 5.9541436 9.7737031 5.7471537 9.8321686 5.5585938 9.9179688 C 5.370038 10.003969 5.1466683 10.106275 5.0410156 10.421875 C 4.935363 10.737375 5.0513856 10.953166 5.1503906 11.134766 C 5.2494216 11.316466 5.3808041 11.487422 5.5351562 11.669922 C 5.7245637 11.893922 5.950313 12.1319 6.1933594 12.375 L 8.2949219 14.476562 C 8.3060909 14.493493 8.3277244 14.521432 8.3339844 14.53125 C 8.3354844 14.56325 8.3389714 14.630344 8.3320312 14.714844 C 8.3201554 14.859044 8.2926732 15.057003 8.2539062 15.283203 C 8.1763734 15.735603 8.0578084 16.302441 7.9472656 16.869141 C 7.8367238 17.435841 7.7336875 18.000863 7.6914062 18.476562 C 7.6702613 18.714363 7.6619889 18.927414 7.6855469 19.132812 C 7.6963358 19.226709 7.7127582 19.327869 7.7480469 19.429688 C 7.7764895 19.512279 7.8233233 19.593579 7.8945312 19.671875 C 7.9020375 19.680101 7.9020302 19.689139 7.9101562 19.697266 L 14.152344 25.939453 z " color="#000" font-family="sans-serif" font-weight="400" transform="translate(-5 1031.362)" white-space="normal"/><path style="line-height:normal;text-indent:0;text-align:start;text-decoration-line:none;text-decoration-style:solid;text-decoration-color:#000;text-transform:none;block-progression:tb;isolation:auto;mix-blend-mode:normal;marker:none" d="m 78.803636,1014.5661 c -0.312385,0 -0.470869,0.1789 -0.604375,0.3334 -0.133506,0.1544 -0.248382,0.3358 -0.366723,0.5447 -0.236676,0.4176 -0.477859,0.9444 -0.714788,1.4791 -0.23693,0.5346 -0.468034,1.076 -0.665188,1.4962 -0.09857,0.2101 -0.189167,0.3903 -0.261655,0.5163 -0.04257,0.074 -0.08429,0.1265 -0.103393,0.1519 -0.02814,0.012 -0.08682,0.038 -0.164373,0.058 -0.132269,0.034 -0.317127,0.07 -0.530342,0.1041 -0.42643,0.068 -0.968314,0.1323 -1.506373,0.2047 -0.53806,0.072 -1.070607,0.1518 -1.507629,0.2618 -0.218508,0.055 -0.412335,0.1154 -0.588897,0.2038 -0.176558,0.088 -0.384565,0.1938 -0.483495,0.5188 -0.09893,0.3249 0.0096,0.5463 0.102305,0.7333 0.09273,0.187 0.214577,0.3629 0.359108,0.5508 0.289065,0.3759 0.671364,0.7902 1.061856,1.2026 0.390493,0.4123 0.788532,0.8206 1.092051,1.1561 0.151765,0.1677 0.280114,0.3179 0.367057,0.4325 0.051,0.067 0.08351,0.1267 0.09963,0.1545 0.0014,0.033 0.006,0.1022 -5.01e-4,0.1895 -0.01112,0.1485 -0.03739,0.3523 -0.07369,0.5852 -0.0726,0.4658 -0.184499,1.0508 -0.288008,1.6343 -0.103508,0.5835 -0.199231,1.1636 -0.238822,1.6534 -0.0198,0.2449 -0.02736,0.4656 -0.0053,0.6771 0.02209,0.2114 0.04931,0.461 0.300552,0.6645 0.251243,0.2036 0.476801,0.1589 0.667612,0.1199 0.190816,-0.039 0.38098,-0.1116 0.588649,-0.2042 0.415329,-0.1854 0.892841,-0.4561 1.371111,-0.7359 0.478266,-0.2799 0.955333,-0.5689 1.340073,-0.7818 0.192371,-0.1064 0.362294,-0.1937 0.48852,-0.249 0.07403,-0.032 0.135759,-0.048 0.164874,-0.056 0.02891,0.01 0.09046,0.025 0.16412,0.059 0.125394,0.057 0.294059,0.1479 0.484836,0.2577 0.381558,0.2197 0.854278,0.517 1.328364,0.8053 0.47409,0.2883 0.94752,0.5674 1.36007,0.76 0.206276,0.096 0.395417,0.1725 0.585633,0.2148 0.190216,0.042 0.415081,0.091 0.669287,-0.1081 0.254203,-0.1991 0.285052,-0.4482 0.310257,-0.6592 0.0252,-0.211 0.02087,-0.4319 0.0047,-0.6772 -0.03238,-0.4904 -0.11957,-1.072 -0.214479,-1.6573 -0.09491,-0.5853 -0.198096,-1.1721 -0.263835,-1.6391 -0.03287,-0.2335 -0.05614,-0.4377 -0.06508,-0.5865 -0.0052,-0.087 3.94e-4,-0.1565 0.0023,-0.1894 0.01652,-0.027 0.0499,-0.087 0.101886,-0.1528 0.08862,-0.113 0.219121,-0.261 0.373331,-0.426 0.308419,-0.3301 0.712441,-0.7312 1.108951,-1.1366 0.39651,-0.4053 0.784861,-0.8129 1.079421,-1.1836 0.14728,-0.1854 0.271676,-0.3591 0.367142,-0.5444 0.09546,-0.1853 0.207313,-0.4047 0.113179,-0.7314 -0.09413,-0.3267 -0.30065,-0.4359 -0.475884,-0.5274 -0.175239,-0.091 -0.368132,-0.1552 -0.585805,-0.2141 -0.435339,-0.1178 -0.966687,-0.2066 -1.503611,-0.2885 -0.536925,-0.082 -1.077742,-0.1555 -1.50311,-0.2312 -0.212684,-0.038 -0.397007,-0.077 -0.528753,-0.1134 -0.07729,-0.022 -0.135587,-0.049 -0.163538,-0.061 -0.01877,-0.026 -0.05963,-0.079 -0.101046,-0.1536 -0.07062,-0.1273 -0.158659,-0.3091 -0.254129,-0.5209 -0.190949,-0.4237 -0.413993,-0.969 -0.64302,-1.5078 -0.229032,-0.5388 -0.462454,-1.0698 -0.692959,-1.4916 -0.115252,-0.2109 -0.227477,-0.3943 -0.358692,-0.5511 -0.131215,-0.1568 -0.286971,-0.3412 -0.599352,-0.344 z m -0.0086,1.1691 c 0.05089,0.074 0.09807,0.137 0.162364,0.2547 0.194225,0.3554 0.422345,0.868 0.647368,1.3973 0.225027,0.5294 0.448538,1.0769 0.652305,1.529 0.101881,0.2261 0.198259,0.4279 0.293528,0.5997 0.09527,0.1718 0.164167,0.3104 0.340288,0.4531 0.176121,0.1427 0.317242,0.1742 0.494961,0.2237 0.177718,0.049 0.382008,0.091 0.608971,0.1316 0.453931,0.081 0.99674,0.1544 1.524276,0.2348 0.527532,0.081 1.041342,0.1691 1.408167,0.2684 0.121411,0.033 0.189886,0.064 0.269603,0.095 -0.04872,0.076 -0.08843,0.1446 -0.170561,0.248 -0.248202,0.3124 -0.622257,0.7087 -1.011833,1.107 -0.389576,0.3983 -0.795384,0.8006 -1.124511,1.1528 -0.164561,0.1761 -0.309833,0.339 -0.429377,0.4914 -0.119544,0.1525 -0.218491,0.2671 -0.28784,0.4949 -0.06935,0.2278 -0.05304,0.3847 -0.04099,0.5853 0.01205,0.2007 0.03887,0.4266 0.07395,0.6758 0.07015,0.4984 0.174181,1.0874 0.267428,1.6624 0.09325,0.575 0.175153,1.1383 0.202435,1.5515 0.009,0.1368 0.0032,0.2178 5.01e-4,0.3107 -0.081,-0.027 -0.152719,-0.048 -0.267766,-0.1013 -0.347621,-0.1623 -0.806939,-0.43 -1.272738,-0.7132 -0.465794,-0.2833 -0.940089,-0.5821 -1.347268,-0.8165 -0.203587,-0.1172 -0.389717,-0.2184 -0.558866,-0.296 -0.169152,-0.077 -0.299232,-0.1453 -0.518212,-0.1473 -0.218984,0 -0.350036,0.064 -0.520307,0.1382 -0.17027,0.075 -0.357929,0.1724 -0.563217,0.286 -0.41057,0.2272 -0.889162,0.5176 -1.359063,0.7925 -0.469902,0.275 -0.933062,0.5345 -1.283025,0.6906 -0.115822,0.052 -0.187886,0.071 -0.26927,0.097 -0.0013,-0.093 -0.0059,-0.1739 0.0051,-0.3105 0.03336,-0.4127 0.12357,-0.9745 0.225271,-1.5478 0.101698,-0.5733 0.214295,-1.1603 0.291772,-1.6574 0.03874,-0.2486 0.0689,-0.474 0.0839,-0.6744 0.015,-0.2004 0.0337,-0.3569 -0.03229,-0.5859 a 0.46888054,0.51418019 0 0 0 0,-10e-5 c -0.06599,-0.229 -0.163362,-0.3454 -0.280649,-0.4999 -0.117282,-0.1546 -0.260065,-0.32 -0.422014,-0.499 -0.323902,-0.358 -0.723697,-0.7675 -1.107363,-1.1726 -0.383661,-0.4051 -0.751865,-0.808 -0.995437,-1.1247 -0.08062,-0.1048 -0.119364,-0.1741 -0.166964,-0.251 0.08017,-0.03 0.149138,-0.06 0.271025,-0.091 0.368239,-0.093 0.883286,-0.1723 1.411932,-0.2434 0.528649,-0.071 1.072478,-0.135 1.527535,-0.2078 0.227533,-0.036 0.432392,-0.075 0.610817,-0.1209 0.178421,-0.046 0.320022,-0.075 0.49822,-0.2148 0.178198,-0.1396 0.24911,-0.277 0.346897,-0.4471 0.09778,-0.1701 0.197115,-0.3702 0.302312,-0.5944 0.210392,-0.4484 0.441938,-0.9919 0.674722,-1.5173 0.232783,-0.5253 0.468432,-1.0337 0.667861,-1.3857 0.06601,-0.1164 0.114074,-0.1783 0.166047,-0.2517 z" color="#000" font-family="sans-serif" font-weight="400" overflow="visible" transform="matrix(1.06795 0 0 .97117 -76.11 50.762)" white-space="normal"/></g></svg>