<svg id="Capa_1" enable-background="new 0 0 512 512" height="512" viewBox="0 0 512 512" width="512" xmlns="http://www.w3.org/2000/svg"><g><path d="m417.061 284.307-21.483-186.182h47.27v-69.046c-3.433-.207-6.869-.313-10.312-.312-34.09.001-68.234 10.355-93.256 34.835l1.569 25.488h-42.784v30.117h44.637l9.353 151.986c1.137 18.467-13.535 34.069-32.037 34.069h-133.117c0-19.067 7.733-36.329 20.225-48.82 12.492-12.492 29.753-20.225 48.82-20.225v-34.523h-83.333c-47.673 0-90.822 19.322-122.062 50.552-31.229 31.24-50.551 74.388-50.551 122.061h336.848c48.261 0 85.745-42.057 80.213-90z"/><path d="m446.654 278.032.326 2.823c3.62 31.374-6.355 62.891-27.369 86.469-2.173 2.439-4.45 4.763-6.811 6.983h99.2c0-43.698-27.066-81.067-65.346-96.275z"/><path d="m102.614 183.997c22.373-8.243 45.874-12.421 70.001-12.421h83.333v-21.118c0-18.019-14.607-32.627-32.627-32.627h-107.308c-18.019 0-32.627 14.607-32.627 32.627v3.792c0 13.243 7.893 24.634 19.228 29.747z"/><path d="m121.677 404.424v25.723h-30.117v-25.723h-53.257c-.459 3.198-.704 6.465-.704 9.79 0 38.118 30.901 69.019 69.019 69.019s69.019-30.901 69.019-69.019c0-3.325-.244-6.592-.704-9.79z"/><path d="m420.439 404.424v25.723h-30.117v-25.723h-53.257c-.46 3.198-.704 6.465-.704 9.79 0 38.118 30.901 69.019 69.019 69.019s69.019-30.901 69.019-69.019c0-3.325-.244-6.592-.704-9.79z"/></g></svg>