<?xml version="1.0" encoding="UTF-8"?>
<svg width="126px" height="59px" viewBox="0 0 126 59" version="1.1" xmlns="http://www.w3.org/2000/svg" xmlns:xlink="http://www.w3.org/1999/xlink">
    <!-- Generator: Sketch 58 (84663) - https://sketch.com -->
    <title>logo</title>
    <desc>Created with Sketch.</desc>
    <defs>
        <polygon id="path-1" points="0.372606609 0.247365517 29.4701951 0.247365517 29.4701951 36.8286364 0.372606609 36.8286364"></polygon>
        <polygon id="path-3" points="0 0.353631724 4.05170968 0.353631724 4.05170968 5.46854483 0 5.46854483"></polygon>
    </defs>
    <g id="Symbols" stroke="none" stroke-width="1" fill="none" fill-rule="evenodd">
        <g id="cabecera" transform="translate(-81.000000, -20.000000)">
            <g id="logo" transform="translate(80.000000, 20.000000)">
                <g id="Group-27" transform="translate(0.000000, 0.257462)">
                    <path d="M31.5297234,26.7163341 C31.1000618,27.0934403 30.3876227,27.5220389 29.2784961,27.5220389 C27.9560374,27.5220389 27.2435983,26.7900389 27.2435983,25.7556472 C27.2435983,24.6828886 28.0089957,24.0972886 29.7311397,24.0417575 L31.5297234,23.9892554 L31.5297234,26.7163341 Z M34.9944953,29.7892196 C34.8066432,29.2056389 34.7541845,28.2646403 34.7541845,26.4497851 L34.7541845,21.455021 C34.7541845,18.1357796 32.8766629,16.8509934 29.7815999,16.8509934 C28.1159115,16.8509934 26.553142,17.1180472 24.8854552,18.2417934 L25.9226385,20.2479782 C26.7145149,19.7643534 27.7721821,19.3095037 29.1510964,19.3095037 C30.4700578,19.3095037 31.5297234,19.9248886 31.5297234,21.455021 L31.5297234,21.7695286 L29.3009784,21.8568637 C26.1029965,21.9553051 24.0656007,23.3768996 24.0656007,25.9959451 C24.0656007,28.4807065 25.8611869,30.0598072 28.1703686,30.0598072 C29.8320602,30.0598072 30.9726621,29.4176665 31.7905181,28.6649686 L32.3250972,29.7892196 L34.9944953,29.7892196 Z" id="Fill-1" fill="#1D1D1B"></path>
                    <path d="M42.8033466,30.0598072 C38.7290547,30.0598072 36.6377014,27.0934403 36.6377014,23.533901 C36.6377014,19.6825713 39.3875362,16.8504886 43.1146015,16.8504886 C44.8102663,16.8504886 45.9733505,17.2816113 46.690286,17.7283837 L46.6393261,20.3555065 C45.767013,19.6825713 44.7857856,19.3095037 43.4863088,19.3095037 C41.3459941,19.3095037 39.8097038,21.0249079 39.8097038,23.3768996 C39.8097038,25.5436196 40.9762852,27.4670127 43.4618281,27.4670127 C44.6508918,27.4670127 45.5516825,27.0934403 46.4294913,26.5815451 L47.2193694,28.6937437 C46.2116629,29.3909106 44.5199949,30.0598072 42.8033466,30.0598072" id="Fill-3" fill="#1D1D1B"></path>
                    <path d="M54.0769197,30.0598072 C50.0006294,30.0598072 47.9092762,27.0934403 47.9092762,23.533901 C47.9092762,19.6825713 50.6631078,16.8504886 54.3901731,16.8504886 C56.0818411,16.8504886 57.2434264,17.2816113 57.9593627,17.7283837 L57.909402,20.3555065 C57.0330921,19.6825713 56.05786,19.3095037 54.7613808,19.3095037 C52.6175688,19.3095037 51.0812785,21.0249079 51.0812785,23.3768996 C51.0812785,25.5436196 52.24786,27.4670127 54.729406,27.4670127 C55.9224666,27.4670127 56.8232573,27.0934403 57.6955704,26.5815451 L58.4869473,28.6937437 C57.485236,29.3909106 55.7895712,30.0598072 54.0769197,30.0598072" id="Fill-5" fill="#1D1D1B"></path>
                    <path d="M62.0155189,15.1979859 C60.933371,15.1979859 60.0565614,14.3453321 60.0565614,13.241779 C60.0565614,12.2013294 60.933371,11.3199004 62.0155189,11.3199004 C63.1311404,11.3199004 64.0019548,12.1695252 64.0019548,13.241779 C64.0019548,14.3130232 63.1311404,15.1979859 62.0155189,15.1979859 L62.0155189,15.1979859 Z M60.4322655,29.7885128 L63.6062663,29.7885128 L63.6062663,17.1425818 L60.4322655,17.1425818 L60.4322655,29.7885128 Z" id="Fill-7" fill="#1D1D1B"></path>
                    <path d="M74.8174386,23.4581263 C74.8174386,25.8328353 73.8122301,27.5749953 71.8237958,27.5749953 C69.8938155,27.5749953 68.7587093,25.9146174 68.7587093,23.4581263 C68.7587093,21.0985622 69.7339414,19.3942643 71.7468564,19.3942643 C73.7038155,19.3942643 74.8174386,21.0243526 74.8174386,23.4581263 M78.0683788,23.4313705 C78.0683788,21.5059581 77.4868367,19.8455801 76.3986935,18.6738753 C75.2940633,17.5178201 73.7332923,16.8514477 71.7993151,16.8514477 C69.9747518,16.8514477 68.4639414,17.5178201 67.3553143,18.6435857 C66.1887329,19.8455801 65.5322498,21.558965 65.5322498,23.5338505 C65.5322498,25.570325 66.2187093,27.2983498 67.4622301,28.4811608 C68.5408808,29.4973788 70.0267109,30.0597567 71.7713371,30.0597567 C73.6508572,30.0597567 75.1831507,29.3908601 76.2972734,28.2423774 C77.4583592,27.0615857 78.0683788,25.3517346 78.0683788,23.4313705" id="Fill-9" fill="#1D1D1B"></path>
                    <path d="M88.1526385,29.7891691 L88.1526385,22.3565926 C88.1526385,21.0475746 87.9108289,19.6032629 86.2956007,19.6032629 C85.1889721,19.6032629 84.1028273,20.1908822 83.1215999,20.9445898 L83.1215999,29.7891691 L79.9441019,29.7891691 L79.9441019,17.1432381 L82.6469736,17.1432381 L82.9922018,18.5098063 C84.3411397,17.4935884 85.6915763,16.8509429 87.379747,16.8509429 C89.2872451,16.8509429 91.3246408,18.0009401 91.3246408,21.3964105 L91.3246408,29.7891691 L88.1526385,29.7891691 Z" id="Fill-11" fill="#1D1D1B"></path>
                    <path d="M100.562767,26.7163341 C100.140599,27.0934403 99.4226644,27.5220389 98.3135378,27.5220389 C96.9895803,27.5220389 96.2726448,26.7900389 96.2726448,25.7556472 C96.2726448,24.6828886 97.0400405,24.0972886 98.7606857,24.0417575 L100.562767,23.9892554 L100.562767,26.7163341 Z M104.029037,29.7892196 C103.839686,29.2056389 103.791225,28.2646403 103.791225,26.4497851 L103.791225,21.455021 C103.791225,18.1357796 101.906209,16.8509934 98.8146432,16.8509934 C97.1469563,16.8509934 95.5881837,17.1180472 93.9204969,18.2417934 L94.9526841,20.2479782 C95.7455598,19.7643534 96.8017282,19.3095037 98.1806424,19.3095037 C99.5031011,19.3095037 100.562767,19.9248886 100.562767,21.455021 L100.562767,21.7695286 L98.3365197,21.8568637 C95.1345409,21.9553051 93.0996432,23.3768996 93.0996432,25.9959451 C93.0996432,28.4807065 94.8962286,30.0598072 97.1979162,30.0598072 C98.8691003,30.0598072 100.005705,29.4176665 100.82556,28.6649686 L101.356142,29.7892196 L104.029037,29.7892196 Z" id="Fill-13" fill="#1D1D1B"></path>
                    <path d="M18.7087687,23.9417512 C18.4799489,23.005296 18.2586231,22.0728794 18.0597797,21.1480353 C17.6940677,19.4533291 17.3992998,17.7762919 17.2624076,16.1007691 C17.2214398,15.6322891 17.2044532,15.1829926 17.1854681,14.7357153 C17.1514949,14.0289567 17.1440008,13.342896 17.1594886,12.6906588 C17.1819709,11.5346036 17.2624076,10.4598257 17.3823131,9.49510014 C17.5456845,8.22697324 17.8099764,7.15774841 18.0053226,6.23896221 C17.8064792,6.3979829 17.60214,6.55145048 17.4032966,6.69936497 C17.177974,7.37633876 16.9006924,8.32541462 16.6468922,9.51226428 C16.4765264,10.3083774 16.313155,11.2291829 16.1837569,12.2413622 C15.2494925,11.8395194 14.3362116,11.3599332 13.5053659,10.7914974 L13.5238513,12.1010201 C14.3157278,12.7623443 15.1520692,13.3615746 16.0148899,13.9002257 C15.8949843,15.3914863 15.8595122,17.0518643 15.9624312,18.8697484 C15.9979032,19.436165 16.0468647,20.001067 16.0993234,20.5659691 C14.2967427,20.0616463 12.3982376,19.2963277 10.7815106,18.1932794 L10.8079898,19.5083553 C12.5241385,20.952667 14.5030803,22.1127608 16.3826003,22.914427 C16.6548859,24.806016 16.9886231,26.6844794 17.299878,28.583136 C14.8373171,28.2499498 11.5244256,27.3478229 8.94695515,25.5814312 L8.96793863,26.8970119 C11.6967899,29.1884243 15.0771282,30.7720684 17.7090559,31.309205 C18.251129,35.2630146 18.4744532,39.4293567 17.5192054,44.2055305 L20.5842919,42.3876463 C21.7773525,35.6158891 20.1061684,29.6508463 18.7087687,23.9417512" id="Fill-15" fill="#E20714"></path>
                    <g id="Group-19" transform="translate(0.699449, 0.000000)">
                        <mask id="mask-2" fill="white">
                            <use xlink:href="#path-1"></use>
                        </mask>
                        <g id="Clip-18"></g>
                        <path d="M14.6308796,36.8286364 C10.681989,36.7559412 3.20737451,32.8440323 0.65238631,27.3686723 C0.65238631,27.3686723 0.451544453,26.9340157 0.372606609,26.7638888 C0.483519276,26.6068874 0.751808025,26.221704 0.751808025,26.221704 C1.65409756,24.9369178 2.72875138,22.7873619 2.72875138,19.8305868 C2.72875138,18.9360323 2.57487254,17.8536819 2.25612352,16.5517316 C2.25612352,16.5517316 2.12322817,15.999955 2.06477419,15.7722778 C2.26012038,15.6435468 2.72875138,15.3270199 2.72875138,15.3270199 C4.40193391,14.1957012 7.28516365,11.4888157 7.70733124,5.98266124 C7.70733124,5.98266124 7.75629268,5.33446262 7.77477813,5.07094262 C8.0375712,5.03711917 8.66757514,4.94019228 8.66757514,4.94019228 C10.3877207,4.67515779 13.6986137,3.81796055 16.5758482,1.00708055 C16.5758482,1.00708055 17.1124256,0.478526069 17.3527364,0.247315034 C17.5870519,0.478526069 18.1256279,1.00708055 18.1256279,1.00708055 C21.0028623,3.81796055 24.3137553,4.67515779 26.0304036,4.94019228 C26.0304036,4.94019228 26.6679017,5.03711917 26.9246994,5.07094262 C26.9246994,5.33446262 26.9301951,5.98669986 26.9301951,5.98669986 C26.9641684,10.1126557 28.766749,11.7977702 29.4701951,12.2965399 C29.2393769,12.500995 28.9695893,12.7342254 28.8381928,12.8457923 C27.0990622,12.1506447 25.0321896,10.5887081 24.7584052,7.04986676 C22.9123588,6.65004331 20.1215563,5.66815366 17.5066153,3.48275503 L17.3562337,3.29142538 L17.2028544,3.48275503 C14.5874138,5.66815366 11.8415759,6.61016193 10.0015248,7.01200469 L9.84015185,7.04784745 L9.81167427,7.21645986 C9.12921164,12.2718033 6.66814949,15.1563881 4.72268135,16.6860157 L4.60277577,16.7829426 L4.63275216,16.9247992 C4.87656019,18.1358806 4.99496696,19.0647633 4.99496696,19.8305868 C4.99496696,22.330493 4.34597797,24.6638061 3.07198112,26.7679274 L2.99704013,26.8850474 L3.07198112,27.0163026 C2.88812589,30.968093 11.5563006,36.0249509 14.5559386,36.1425757 L14.6308796,36.8286364 Z" id="Fill-17" fill="#E20714" mask="url(#mask-2)"></path>
                    </g>
                    <g id="Group-22" transform="translate(3.097561, 52.907586)">
                        <mask id="mask-4" fill="white">
                            <use xlink:href="#path-3"></use>
                        </mask>
                        <g id="Clip-21"></g>
                        <path d="M3.68100157,3.11907724 C3.5845775,3.03426621 3.46966798,2.96157103 3.33977026,2.90250621 C3.26432966,2.86918759 3.19788198,2.84344138 3.1389284,2.8237531 C3.57558458,2.58042621 3.7964107,2.20432966 3.7964107,1.70202621 C3.7964107,1.54351034 3.7734288,1.39408138 3.7284642,1.25676828 C3.683,1.12046483 3.62554524,1.00536414 3.55659953,0.915504828 C3.48765382,0.824635862 3.39972305,0.743863448 3.29630448,0.674702069 C3.19588356,0.608064828 3.09846027,0.556572414 3.00553344,0.521234483 C2.91710307,0.487915862 2.81718175,0.458131034 2.70876711,0.433394483 C2.60035248,0.408657931 2.51042329,0.393513103 2.44097797,0.38594069 C2.37253186,0.378873103 2.2995893,0.37332 2.22115106,0.368271724 C2.16769315,0.364737931 2.13371991,0.361708966 2.13571833,0.366252414 L-9.99213218e-05,0.353631724 L-9.99213218e-05,5.46854483 L2.17818489,5.46854483 C2.39301574,5.46854483 2.60335012,5.44532276 2.80219355,5.4003931 C3.00453423,5.35394897 3.20237844,5.27973931 3.39073013,5.18129793 C3.58907396,5.07730345 3.75044689,4.92484552 3.87035248,4.72745793 C3.99125728,4.53007034 4.05170968,4.29734483 4.05170968,4.03634897 C4.05170968,3.83138897 4.01523839,3.6471269 3.94179622,3.48861103 C3.86885366,3.33211448 3.7809229,3.2079269 3.68100157,3.11907724 M3.12993548,2.04884276 C3.11095043,2.11144138 3.07148151,2.1831269 3.01402675,2.26288966 C2.95857042,2.33911862 2.89212274,2.39717379 2.81268529,2.44159862 C2.72925098,2.48854759 2.61134382,2.52994345 2.46246105,2.56427172 C2.31008104,2.60061931 2.12522659,2.62081241 1.91489221,2.62485103 L0.559459481,2.62485103 L0.559459481,0.906417931 L2.17318883,0.905408276 C2.33905822,0.915 2.48344453,0.934688276 2.60135169,0.965482759 C2.715262,0.996277241 2.82217781,1.04373103 2.9196011,1.10885379 C3.01152872,1.16993793 3.07947522,1.25474897 3.12693784,1.36682069 C3.17589929,1.48293103 3.1988812,1.62781655 3.19638316,1.77976966 C3.17440047,1.88729793 3.15241778,1.97614759 3.12993548,2.04884276 M3.4711668,4.03130069 C3.47966011,4.13176138 3.46617073,4.22868828 3.43269709,4.32208138 C3.39822423,4.41597931 3.33827144,4.51189655 3.25533674,4.60629931 C3.17539969,4.69666345 3.04600157,4.7708731 2.86914083,4.82791862 C2.68428639,4.88647862 2.45396774,4.91626345 2.18467978,4.91626345 L0.559459481,4.91626345 L0.559459481,3.17713241 L1.99832651,3.17713241 C2.29309441,3.17713241 2.54539575,3.20035448 2.74723682,3.24477931 C2.94008497,3.28768966 3.08996696,3.35028828 3.19288592,3.43055586 C3.29430606,3.51031862 3.36674902,3.59714897 3.40771676,3.68902759 C3.44968371,3.78090621 3.4711668,3.89297793 3.4711668,4.03130069" id="Fill-20" fill="#494B52" mask="url(#mask-4)"></path>
                    </g>
                    <path d="M13.9682014,56.2805917 L13.968701,56.31492 C13.9726979,56.3754993 13.9741967,56.43204 13.9716987,56.4815131 C13.9692006,56.5325007 13.9582093,56.6183214 13.938225,56.7379655 C13.9187404,56.8550855 13.8907624,56.9610993 13.8542911,57.0509586 C13.8178198,57.1433421 13.7593659,57.2458221 13.6794288,57.3589034 C13.6019898,57.468451 13.5090629,57.5603297 13.4021471,57.63252 C13.2942321,57.7047103 13.1478474,57.7683186 12.9674894,57.8213255 C12.7861322,57.8743324 12.5782958,57.9010883 12.3499756,57.9010883 C12.1581267,57.9010883 11.9822651,57.8753421 11.8278867,57.8263738 C11.6750071,57.7769007 11.5486066,57.7137972 11.4521825,57.6370634 C11.3552589,57.5598248 11.2693265,57.4679462 11.1968836,57.3629421 C11.123941,57.2569283 11.0684847,57.1544483 11.032513,57.0605503 C10.9955421,56.9641283 10.9655657,56.8606386 10.943583,56.7551297 C10.9216003,56.648611 10.9086105,56.5688483 10.9041141,56.5128124 C10.8996176,56.4577862 10.8976192,56.4083131 10.8976192,56.3643931 L10.8976192,53.2617228 L10.3515492,53.2617228 L10.3515492,56.3643931 L10.3520488,56.3916538 C10.3560456,56.4593007 10.3620409,56.5239186 10.369535,56.5855076 C10.3765295,56.6501255 10.3965138,56.7536152 10.4299874,56.9010248 C10.4629614,57.04692 10.5039292,57.1827186 10.552391,57.3043821 C10.6008529,57.4280648 10.6767931,57.5653779 10.7777136,57.7127876 C10.8806326,57.863731 10.9980401,57.9919572 11.1269386,58.0949421 C11.2568363,58.1999462 11.4282014,58.288291 11.6360378,58.3574524 C11.8423753,58.426109 12.0706955,58.4604372 12.3155028,58.4604372 C12.6147671,58.4604372 12.8885515,58.4256041 13.1288623,58.3554331 C13.3716711,58.2847572 13.5705146,58.1954028 13.7198969,58.0878745 C13.8697789,57.9813559 14.0026743,57.8475766 14.1145862,57.6905752 C14.2249992,57.5350883 14.3064351,57.3902028 14.3553965,57.2604621 C14.4033588,57.1337503 14.4413289,56.9923986 14.467808,56.838931 C14.4942872,56.6864731 14.5082762,56.5794497 14.5107742,56.5118028 C14.5132722,56.44668 14.5142714,56.3790331 14.5142714,56.3083572 L14.5142714,53.2617228 L13.9682014,53.2617228 L13.9682014,56.2805917 Z" id="Fill-23" fill="#494B52"></path>
                    <path d="M20.9422101,56.0621528 C20.8302982,55.9616921 20.695904,55.8778908 20.5450228,55.8137777 C20.3576703,55.7319956 20.2162817,55.6789887 20.1148615,55.654757 C19.7656365,55.5613639 19.6757073,55.5396563 19.6437325,55.5341032 C18.6904831,55.3028921 18.4281896,55.0434108 18.3747317,54.8631873 C18.355247,54.8051321 18.3457545,54.7248646 18.3457545,54.6254135 C18.3497514,54.3240314 18.4541692,54.1059459 18.6635043,53.9595459 C18.8813328,53.8075928 19.1526192,53.733888 19.4758647,53.7434797 C19.730664,53.7530714 19.9854634,53.8086025 20.2322691,53.9100728 C20.4770763,54.0115432 20.6634296,54.1316921 20.7863328,54.2674908 L20.8687679,54.360379 L21.2244878,53.8994714 L21.1540433,53.8343487 C21.1500464,53.8298052 21.12007,53.8030494 21.0656129,53.7555956 C21.0106562,53.7071321 20.9636932,53.6682604 20.9252234,53.6384756 C20.8872533,53.6102052 20.829299,53.5693142 20.7508607,53.5168121 C20.667926,53.4607763 20.5834925,53.4153418 20.5010574,53.3810135 C20.4206208,53.3481997 20.3261951,53.3143763 20.2187797,53.2795432 C20.1068678,53.2452149 19.9819662,53.2219928 19.8485712,53.209877 C19.7136774,53.1972563 19.573288,53.1942273 19.4323989,53.2063432 C18.9083116,53.2346135 18.4956365,53.3774797 18.2053651,53.6293887 C17.9085987,53.8863459 17.7582172,54.2215514 17.7582172,54.623899 C17.7582172,55.0196839 17.9155932,55.3468121 18.2258489,55.5972066 C18.5236145,55.8375046 18.9837522,56.0167183 19.592273,56.131819 C20.1578277,56.237328 20.527037,56.4342108 20.6904083,56.717419 C20.8462856,56.9880066 20.773343,57.288379 20.4665846,57.6367101 C20.3801526,57.7361611 20.2522533,57.8103708 20.0853847,57.8563101 C19.9130205,57.903259 19.7341613,57.9199183 19.5403139,57.9012397 C19.5293226,57.9017446 19.5188308,57.9017446 19.5083391,57.9017446 C18.9577726,57.9017446 18.4516711,57.6740673 18.0040236,57.2262852 L17.928583,57.1500563 L17.5159079,57.5897611 L17.6163289,57.6589225 C17.6433076,57.6776011 17.7207467,57.7361611 17.8466475,57.8346025 C17.9815413,57.938597 18.0884571,58.0133114 18.1733902,58.0622797 C18.2553257,58.1102383 18.3717341,58.1703128 18.5216161,58.2435128 C18.6779929,58.3207514 18.8523556,58.3762825 19.0392085,58.4090963 C19.2245625,58.4439294 19.4309001,58.4605887 19.6527254,58.4605887 C19.8850425,58.4605887 20.1088662,58.421717 20.3167026,58.345488 C20.5260378,58.2702687 20.7063958,58.1647597 20.8527805,58.0309804 C20.9961676,57.9017446 21.1155736,57.7492866 21.2070016,57.5771404 C21.2999284,57.4014604 21.3468914,57.2116452 21.3468914,57.0142577 C21.3468914,56.8188894 21.3044249,56.6194825 21.2164941,56.4119983 C21.1470488,56.281248 21.0546216,56.1631183 20.9422101,56.0621528" id="Fill-25" fill="#494B52"></path>
                </g>
                <polygon id="Fill-28" fill="#494B52" points="24.6600826 58.6338455 25.2061526 58.6338455 25.2061526 53.5189324 24.6600826 53.5189324"></polygon>
                <polygon id="Fill-29" fill="#494B52" points="32.2867773 53.5190839 32.2867773 57.5380163 29.1382565 53.5589652 29.1072809 53.5190839 28.6151684 53.5190839 28.6151684 58.633997 29.1607388 58.633997 29.1607388 54.4479666 32.4196727 58.5941156 32.4511479 58.633997 32.833347 58.633997 32.833347 53.5190839"></polygon>
                <polygon id="Fill-30" fill="#494B52" points="36.2562518 53.5186295 36.2422628 58.6340474 39.872904 58.6340474 39.872904 58.0812612 36.7888324 58.0812612 36.7888324 56.342635 39.5686436 56.342635 39.5686436 55.789344 36.7888324 55.789344 36.7888324 54.0784833 39.872904 54.0784833 39.872904 53.5186295"></polygon>
                <g id="Group-35" transform="translate(41.567270, 53.165048)" fill="#494B52">
                    <path d="M3.75834068,3.15456662 C3.6464288,3.05410593 3.51203462,2.97030455 3.36065382,2.90619145 C3.17380094,2.82440938 3.03241227,2.77140248 2.93099213,2.74717076 C2.58176711,2.65377766 2.49183792,2.63207007 2.4598631,2.62651697 C1.50661369,2.39530593 1.24382061,2.13582455 1.19086231,1.9556011 C1.17137766,1.89754593 1.16138552,1.81727834 1.16138552,1.71782731 C1.16588198,1.41644524 1.27029976,1.19835972 1.47963493,1.05195972 C1.69746341,0.900006621 1.96924941,0.826301793 2.29199528,0.835893517 C2.54679465,0.845485241 2.80159402,0.901016276 3.04839969,1.00248662 C3.29320692,1.10395697 3.47956019,1.22410593 3.60246341,1.35990455 L3.68489851,1.45279283 L4.04061841,0.991885241 L3.97017388,0.926762483 C3.96617703,0.922219034 3.93620063,0.895463172 3.88174351,0.848009379 C3.82628718,0.799545931 3.77982376,0.760674207 3.74135405,0.730889379 C3.70338395,0.702619034 3.64542958,0.661728 3.56699135,0.609225931 C3.48405665,0.553190069 3.39962313,0.507755586 3.31718804,0.47342731 C3.23675138,0.440613517 3.14232573,0.406790069 3.03491031,0.371956966 C2.92299843,0.33762869 2.79809677,0.314406621 2.66470181,0.302290759 C2.52930842,0.289670069 2.38891896,0.286641103 2.2485295,0.298756966 C1.72444217,0.32702731 1.31176711,0.469893517 1.02149567,0.721802483 C0.724729347,0.978759724 0.574347758,1.31396524 0.574347758,1.71631283 C0.574347758,2.11209766 0.731224233,2.43922593 1.04197954,2.68962041 C1.33974508,2.92991834 1.79988277,3.10913214 2.40840362,3.22423283 C2.9739583,3.32974179 3.34316758,3.52662455 3.50653895,3.80983283 C3.66241621,4.08042041 3.58947364,4.38079283 3.28271518,4.72912386 C3.19628324,4.8285749 3.06788434,4.90278455 2.90151534,4.94872386 C2.72915106,4.99567283 2.5507915,5.01233214 2.35644453,4.99365352 C2.34545319,4.99415834 2.33496145,4.99415834 2.32446971,4.99415834 C1.77390323,4.99415834 1.26780173,4.7664811 0.820154209,4.31869903 L0.744713611,4.24247007 L0.332038552,4.6821749 L0.432459481,4.75133628 C0.459438238,4.7700149 0.536377655,4.8285749 0.662778127,4.92701628 C0.797671912,5.03101076 0.904587726,5.10572524 0.98952085,5.15469352 C1.07145633,5.20265214 1.18786467,5.26272662 1.33774666,5.33592662 C1.49412352,5.41316524 1.66848623,5.46869628 1.8553391,5.50151007 C2.04069315,5.53634317 2.24703068,5.55300248 2.46885602,5.55300248 C2.70117309,5.55300248 2.92499685,5.51413076 3.1328332,5.43790179 C3.34216837,5.36268248 3.52252636,5.25717352 3.66891109,5.12339421 C3.81229819,4.99415834 3.93170417,4.84170041 4.02313218,4.66955421 C4.11605901,4.49387421 4.16302203,4.30405903 4.16302203,4.10667145 C4.16302203,3.91130317 4.12055547,3.71189628 4.0326247,3.50441214 C3.96317939,3.37366179 3.87075216,3.25553214 3.75834068,3.15456662" id="Fill-31"></path>
                    <path d="M10.4383808,3.15456662 C10.3264689,3.05410593 10.1920747,2.97030455 10.0406939,2.90619145 C9.85384107,2.82440938 9.7124524,2.77140248 9.61103226,2.74717076 C9.26180724,2.65377766 9.17187805,2.63207007 9.13990323,2.62651697 C8.18665382,2.39530593 7.92386074,2.13582455 7.87090244,1.9556011 C7.85141778,1.89754593 7.84192526,1.81727834 7.84192526,1.71782731 C7.84592211,1.41644524 7.95033989,1.19835972 8.15967506,1.05195972 C8.37750354,0.900006621 8.65328639,0.826301793 8.97203541,0.835893517 C9.22683478,0.845485241 9.48163415,0.901016276 9.72843981,1.00248662 C9.97324705,1.10395697 10.1596003,1.22410593 10.2825035,1.35990455 L10.3649386,1.45279283 L10.7206585,0.991885241 L10.650214,0.926762483 C10.6462172,0.922219034 10.6162408,0.895463172 10.5617836,0.848009379 C10.5063273,0.799545931 10.4598639,0.760674207 10.4213942,0.730889379 C10.3834241,0.702619034 10.3254697,0.661728 10.2470315,0.609225931 C10.1640968,0.553190069 10.0796633,0.507755586 9.99722817,0.47342731 C9.9167915,0.440613517 9.82236585,0.406790069 9.71495043,0.371956966 C9.60303855,0.33762869 9.47863651,0.314406621 9.34474194,0.302290759 C9.20934854,0.289670069 9.06895909,0.286641103 8.92856963,0.298756966 C8.4044823,0.32702731 7.99180724,0.469893517 7.7015358,0.721802483 C7.40476947,0.978759724 7.25438788,1.31396524 7.25438788,1.71631283 C7.25438788,2.11209766 7.41126436,2.43922593 7.72201967,2.68962041 C8.01978521,2.92991834 8.4799229,3.10913214 9.08844375,3.22423283 C9.65399843,3.32974179 10.0232077,3.52662455 10.1865791,3.80983283 C10.3424563,4.08042041 10.2695138,4.38079283 9.96275531,4.72912386 C9.87632337,4.8285749 9.74792447,4.90278455 9.58155547,4.94872386 C9.40969079,4.99567283 9.23033202,5.01233214 9.03648466,4.99365352 C9.02549331,4.99415834 9.01500157,4.99415834 9.00450983,4.99415834 C8.45394335,4.99415834 7.94784186,4.7664811 7.50019434,4.31869903 L7.42475374,4.24247007 L7.01207868,4.6821749 L7.11249961,4.75133628 C7.13947836,4.7700149 7.21691739,4.8285749 7.34281825,4.92701628 C7.47771204,5.03101076 7.58462785,5.10572524 7.66956098,5.15469352 C7.75149646,5.20265214 7.8679048,5.26272662 8.01778678,5.33592662 C8.17416365,5.41316524 8.34852636,5.46869628 8.53537923,5.50151007 C8.72073328,5.53634317 8.92707081,5.55300248 9.14889614,5.55300248 C9.38121322,5.55300248 9.60503698,5.51413076 9.81287333,5.43790179 C10.0222085,5.36268248 10.2025665,5.25717352 10.3489512,5.12339421 C10.4923383,4.99415834 10.6117443,4.84170041 10.7031723,4.66955421 C10.7960991,4.49387421 10.8430622,4.30405903 10.8430622,4.10667145 C10.8430622,3.91130317 10.8005956,3.71189628 10.7126648,3.50441214 C10.6432195,3.37366179 10.5507923,3.25553214 10.4383808,3.15456662" id="Fill-33"></path>
                </g>
                <path d="M62.3923721,53.5190839 L60.0702006,58.633997 L60.671727,58.633997 L61.3147207,57.2512742 L64.0235877,57.2512742 L64.6465972,58.633997 L65.2780999,58.633997 L62.897974,53.5791583 L62.8704957,53.5190839 L62.3923721,53.5190839 Z M62.6341817,54.2601708 L63.7822777,56.7196908 L61.5535327,56.7196908 L62.6341817,54.2601708 Z" id="Fill-36" fill="#494B52"></path>
                <g id="Group-41" transform="translate(67.546814, 53.165048)">
                    <path d="M3.4695181,3.15456662 C3.35710661,3.05410593 3.22321204,2.97030455 3.07133163,2.90619145 C2.88447876,2.82440938 2.74358969,2.77140248 2.64216955,2.74717076 C2.29294453,2.65377766 2.20301534,2.63207007 2.17054091,2.62651697 C1.2172915,2.39530593 0.954998033,2.13582455 0.901540126,1.9556011 C0.882055468,1.89754593 0.873062549,1.81727834 0.873062549,1.71782731 C0.877059402,1.41644524 0.980977577,1.19835972 1.19031275,1.05195972 C1.40764162,0.900006621 1.68442368,0.826301793 2.00267309,0.835893517 C2.25747246,0.845485241 2.51227183,0.901016276 2.7590775,1.00248662 C3.00388474,1.10395697 3.190238,1.22410593 3.31364083,1.35990455 L3.39607592,1.45279283 L3.75129622,0.991885241 L3.6813513,0.926762483 C3.67735445,0.922219034 3.64687844,0.895463172 3.59242132,0.848009379 C3.53746459,0.799545931 3.49100118,0.760674207 3.45253147,0.730889379 C3.41456137,0.702619034 3.3561074,0.661728 3.27766916,0.609225931 C3.19473446,0.553190069 3.11030094,0.507755586 3.02786585,0.47342731 C2.94742919,0.440613517 2.85350315,0.406790069 2.74608773,0.371956966 C2.63367624,0.33762869 2.50927419,0.314406621 2.37587923,0.302290759 C2.24148505,0.289670069 2.10009638,0.286641103 1.95970692,0.298756966 C1.43561959,0.32702731 1.02294453,0.469893517 0.732173485,0.721802483 C0.435906766,0.978759724 0.285525177,1.31396524 0.285525177,1.71631283 C0.285525177,2.11209766 0.441902046,2.43922593 0.753156963,2.68962041 C1.0504229,2.92991834 1.51056058,3.10913214 2.11958104,3.22423283 C2.68513572,3.32974179 3.054345,3.52662455 3.21721676,3.80983283 C3.37359363,4.08042041 3.30015146,4.38079283 2.9938926,4.72912386 C2.90746066,4.8285749 2.77856216,4.90278455 2.61219315,4.94872386 C2.44032848,4.99567283 2.2604701,5.01233214 2.06712234,4.99365352 C2.05663061,4.99415834 2.04563926,4.99415834 2.03564713,4.99415834 C1.48458104,4.99415834 0.97897915,4.7664811 0.530832022,4.31869903 L0.455891031,4.24247007 L0.0432159717,4.6821749 L0.1436369,4.75133628 C0.17011605,4.7700149 0.247555075,4.8285749 0.373955547,4.92701628 C0.508349725,5.03101076 0.615265539,5.10572524 0.700198662,5.15469352 C0.782134146,5.20265214 0.898542486,5.26272662 1.04842447,5.33592662 C1.20530094,5.41316524 1.37916404,5.46869628 1.56601692,5.50151007 C1.75187057,5.53634317 1.9582081,5.55300248 2.18003344,5.55300248 C2.41235051,5.55300248 2.63567467,5.51413076 2.84351101,5.43790179 C3.05334579,5.36268248 3.23320417,5.25717352 3.37958891,5.12339421 C3.522976,4.99415834 3.64288159,4.84170041 3.73380999,4.66955421 C3.82723643,4.49387421 3.87419945,4.30405903 3.87419945,4.10667145 C3.87419945,3.91130317 3.83173289,3.71189628 3.74380212,3.50441214 C3.6738572,3.37366179 3.58192958,3.25553214 3.4695181,3.15456662" id="Fill-37" fill="#494B52"></path>
                    <path d="M15.2019799,3.37300552 L15.2024795,3.40783862 C15.206976,3.46892276 15.2074756,3.52495862 15.2054772,3.57291724 C15.2029792,3.62491448 15.1914882,3.71073517 15.1720035,3.82987448 C15.1520193,3.94901379 15.1245409,4.05452276 15.0880696,4.14337241 C15.0525976,4.23323172 14.9941436,4.33621655 14.9127077,4.45131724 C14.8362679,4.56086483 14.7433411,4.65274345 14.6364253,4.72493379 C14.5265118,4.79712414 14.3801271,4.86174207 14.2012679,4.91373931 C14.0199107,4.96674621 13.812574,4.99350207 13.5837541,4.99350207 C13.3919052,4.99350207 13.2160437,4.96775586 13.0616652,4.91878759 C12.9092852,4.86931448 12.7823851,4.80621103 12.6864607,4.72947724 C12.5890374,4.65223862 12.5026054,4.55985517 12.4306621,4.45535586 C12.3577195,4.34934207 12.3017636,4.24686207 12.2662915,4.15296414 C12.2293206,4.05603724 12.1988446,3.95305241 12.1768619,3.84653379 C12.1548792,3.74102483 12.1418895,3.66025241 12.137393,3.60522621 C12.1328965,3.5502 12.1313977,3.5007269 12.1313977,3.4568069 L12.1313977,0.354136552 L11.5848281,0.354136552 L11.5848281,3.4568069 L11.5853277,3.48507724 C11.5898242,3.55171448 11.5953198,3.61532276 11.6033135,3.67792138 C11.610308,3.74253931 11.6302923,3.84602897 11.6637659,3.99343862 C11.69674,4.13933379 11.7377077,4.27462759 11.7861696,4.39679586 C11.8346314,4.51946897 11.9105716,4.6572869 12.0104929,4.80520138 C12.1139115,4.95614483 12.2323183,5.08538069 12.3607172,5.18735586 C12.4931129,5.29387448 12.6594819,5.37969517 12.8698163,5.44986621 C13.0761538,5.51852276 13.304474,5.55285103 13.5487817,5.55285103 C13.848046,5.55285103 14.1223301,5.51801793 14.3621412,5.4478469 C14.6044504,5.37767586 14.8037935,5.28781655 14.9541751,5.18028828 C15.1035574,5.07376966 15.2354536,4.93999034 15.3478651,4.78298897 C15.4592773,4.62598759 15.5402136,4.4816069 15.5886755,4.35287586 C15.6371373,4.22666897 15.6741082,4.08582207 15.7015865,3.93134483 C15.7285653,3.77333379 15.7420547,3.66933931 15.7445527,3.60522621 C15.7470507,3.53909379 15.7485496,3.4714469 15.7485496,3.40077103 L15.7485496,0.354136552 L15.2019799,0.354136552 L15.2019799,3.37300552 Z" id="Fill-39" fill="#E20714"></path>
                </g>
                <polygon id="Fill-42" fill="#E20714" points="90.3616991 53.5190839 90.3616991 57.5380163 87.2141774 53.5589652 87.1827022 53.5190839 86.6900901 53.5190839 86.6900901 58.633997 87.2376589 58.633997 87.2376589 54.4479666 90.5265692 58.633997 90.9087683 58.633997 90.9087683 53.5190839"></polygon>
                <g id="Group-49" transform="translate(94.025964, 53.165048)" fill="#494B52">
                    <path d="M3.89398387,3.37300552 L3.89448348,3.40783862 C3.89897994,3.46892276 3.89997915,3.52495862 3.89848033,3.57291724 C3.89548269,3.62491448 3.88399174,3.71073517 3.86500669,3.82987448 C3.84452282,3.94901379 3.81754406,4.05452276 3.78107278,4.14337241 C3.74560071,4.23323172 3.68614752,4.33621655 3.60571086,4.45131724 C3.52927105,4.56086483 3.435345,4.65274345 3.3289288,4.72493379 C3.21951495,4.79712414 3.07263061,4.86174207 2.89327183,4.91373931 C2.71241424,4.96674621 2.5055771,4.99350207 2.27625767,4.99350207 C2.08390913,4.99350207 1.90904681,4.96775586 1.75416876,4.91878759 C1.60128914,4.86931448 1.47488867,4.80621103 1.37946381,4.72947724 C1.28154091,4.65223862 1.19510897,4.55985517 1.12316562,4.45535586 C1.05072266,4.34934207 0.994766719,4.24686207 0.958295437,4.15296414 C0.922323761,4.05603724 0.892347364,3.95305241 0.869865067,3.84653379 C0.847382769,3.74102483 0.834892604,3.66025241 0.829896538,3.60522621 C0.825400079,3.5502 0.823901259,3.5007269 0.823901259,3.4568069 L0.823901259,0.354136552 L0.277331629,0.354136552 L0.277331629,3.4568069 L0.277831235,3.48507724 C0.282327695,3.55171448 0.288322974,3.61532276 0.295317467,3.67792138 C0.302811566,3.74253931 0.32279583,3.84602897 0.355769866,3.99343862 C0.388743902,4.13933379 0.430211251,4.27462759 0.478173485,4.39679586 C0.527134933,4.51946897 0.603075138,4.6572869 0.703496066,4.80520138 C0.806914634,4.95614483 0.924821794,5.08538069 1.05272109,5.18735586 C1.18511684,5.29387448 1.35198544,5.37969517 1.56182022,5.44986621 C1.76815775,5.51852276 1.99697758,5.55285103 2.24128521,5.55285103 C2.54054957,5.55285103 2.81433399,5.51801793 3.05464477,5.4478469 C3.29745358,5.37767586 3.49629701,5.28781655 3.6466786,5.18028828 C3.79656058,5.07376966 3.92845673,4.93999034 4.04036861,4.78298897 C4.15178088,4.62598759 4.23271715,4.4816069 4.28117899,4.35287586 C4.32914123,4.22666897 4.36761094,4.08582207 4.39359048,3.93134483 C4.42106884,3.77333379 4.43405862,3.66933931 4.43605704,3.60522621 C4.44005389,3.53909379 4.44155271,3.4714469 4.44155271,3.40077103 L4.44155271,0.354136552 L3.89398387,0.354136552 L3.89398387,3.37300552 Z" id="Fill-43"></path>
                    <path d="M10.8674929,3.15456662 C10.7560806,3.05511559 10.6226857,2.97080938 10.4703057,2.90619145 C10.281954,2.82339972 10.1400657,2.77039283 10.040644,2.74717076 C9.68842132,2.65327283 9.60049056,2.63207007 9.56901534,2.62601214 C8.61576593,2.39530593 8.35447168,2.13582455 8.30051416,1.9556011 C8.2810295,1.89754593 8.27203659,1.81727834 8.27203659,1.71782731 C8.27603344,1.41644524 8.37995161,1.19835972 8.58978639,1.0514549 C8.80661566,0.900006621 9.07240637,0.824282483 9.40214673,0.835893517 C9.6564465,0.845485241 9.91174548,0.901016276 10.1585511,1.00248662 C10.4028588,1.10395697 10.5887124,1.22410593 10.7116157,1.35990455 L10.7945504,1.45279283 L11.0918163,1.06811421 L11.1377801,0.977750069 L10.9908958,0.848009379 C10.9364386,0.799545931 10.888976,0.760674207 10.8510059,0.730889379 C10.8125362,0.702619034 10.7545818,0.661728 10.6761436,0.609225931 C10.5947077,0.554199724 10.5102742,0.508260414 10.4273395,0.47342731 C10.3459036,0.440613517 10.2529768,0.406790069 10.1455614,0.371956966 C10.0321507,0.33762869 9.90774862,0.314406621 9.77485327,0.302290759 C9.63846066,0.289670069 9.49857081,0.287145931 9.35868096,0.298756966 C8.83459363,0.32702731 8.42141896,0.469893517 8.13114752,0.721802483 C7.8343812,0.978759724 7.6835,1.31396524 7.6835,1.71631283 C7.6835,2.11260248 7.84137569,2.44023559 8.15113179,2.68962041 C8.44989654,2.92991834 8.90953462,3.10913214 9.51855507,3.22423283 C10.0841098,3.32974179 10.453319,3.52662455 10.6156912,3.80983283 C10.7720681,4.08042041 10.6986259,4.38180248 10.3933662,4.72912386 C10.3054355,4.8285749 10.1770366,4.90278455 10.0106676,4.94872386 C9.83880291,4.99567283 9.66044335,5.01233214 9.46609638,4.99365352 C9.45610425,4.99415834 9.4446133,4.99415834 9.43412156,4.99415834 C8.88355507,4.99415834 8.37795319,4.7664811 7.92930645,4.31869903 L7.85486507,4.2429749 L7.44119079,4.6821749 L7.54211133,4.75133628 C7.56909009,4.7700149 7.6460295,4.8285749 7.77292958,4.92701628 C7.90732376,5.03202041 8.01423958,5.10572524 8.09867309,5.15519834 C8.18110818,5.20265214 8.29701692,5.26272662 8.4468989,5.33592662 C8.60427498,5.41316524 8.77813808,5.46869628 8.96499095,5.50151007 C9.15084461,5.53634317 9.35718214,5.55300248 9.57900747,5.55300248 C9.81132455,5.55300248 10.0341491,5.51413076 10.2429847,5.43790179 C10.4523198,5.36217766 10.6326778,5.25565903 10.7775637,5.12440386 C10.9209508,4.995168 11.0403568,4.84271007 11.1322844,4.66955421 C11.2257109,4.49387421 11.2731735,4.30405903 11.2731735,4.10667145 C11.2731735,3.91130317 11.2307069,3.71189628 11.1427762,3.50441214 C11.0713324,3.37315697 10.9794048,3.25452248 10.8674929,3.15456662" id="Fill-45"></path>
                    <path d="M18.0913049,3.37300552 L18.0918045,3.40783862 C18.0958013,3.46892276 18.0968006,3.52495862 18.0953017,3.57291724 C18.0928037,3.62491448 18.0808131,3.71073517 18.0618281,3.82987448 C18.0413442,3.94901379 18.0143655,4.05452276 17.9778942,4.14337241 C17.9424221,4.23323172 17.8834685,4.33621655 17.8030319,4.45131724 C17.7260924,4.56086483 17.6321664,4.65274345 17.5257502,4.72493379 C17.4163363,4.79712414 17.269452,4.86174207 17.0900932,4.91373931 C16.9092356,4.96674621 16.7018989,4.99350207 16.4730791,4.99350207 C16.2812301,4.99350207 16.1058682,4.96775586 15.9509902,4.91878759 C15.7981105,4.86931448 15.6717101,4.80621103 15.5762852,4.72947724 C15.4783623,4.65223862 15.3919304,4.55985517 15.319987,4.45535586 C15.2475441,4.34934207 15.1915881,4.24686207 15.1556164,4.15296414 C15.1191452,4.05603724 15.0891688,3.95305241 15.0666865,3.84653379 C15.0442042,3.74102483 15.0322136,3.66025241 15.0267179,3.60522621 C15.0222215,3.5502 15.0207227,3.5007269 15.0207227,3.4568069 L15.0207227,0.354136552 L14.474153,0.354136552 L14.474153,3.4568069 L14.4746526,3.48507724 C14.4796487,3.55171448 14.4851444,3.61532276 14.4926385,3.67792138 C14.499633,3.74253931 14.5196172,3.84602897 14.5530909,3.99343862 C14.5860649,4.13933379 14.6270327,4.27462759 14.6749949,4.39679586 C14.7239563,4.51946897 14.7998965,4.6572869 14.9003175,4.80520138 C15.003736,4.95614483 15.1216432,5.08538069 15.2500421,5.18735586 C15.3819382,5.29387448 15.5488068,5.37969517 15.7596408,5.44986621 C15.9649792,5.51852276 16.193799,5.55285103 16.4381066,5.55285103 C16.737371,5.55285103 17.011655,5.51801793 17.2514662,5.4478469 C17.494275,5.37767586 17.6931184,5.28781655 17.8439996,5.18028828 C17.993382,5.07376966 18.1252781,4.93999034 18.2376896,4.78298897 C18.3486023,4.62598759 18.4295386,4.4816069 18.4780004,4.35287586 C18.525463,4.22666897 18.5644323,4.08582207 18.5909115,3.93134483 C18.6178902,3.77333379 18.63088,3.66933931 18.633378,3.60522621 C18.6368753,3.53909379 18.6383741,3.4714469 18.6383741,3.40077103 L18.6383741,0.354136552 L18.0913049,0.354136552 L18.0913049,3.37300552 Z" id="Fill-47"></path>
                </g>
                <path d="M117.51357,53.5190839 L115.259345,58.4855777 L115.192397,58.633997 L115.793424,58.633997 L116.436917,57.2512742 L119.145285,57.2512742 L119.768294,58.633997 L120.399797,58.633997 L117.991693,53.5190839 L117.51357,53.5190839 Z M117.755879,54.2601708 L118.903475,56.7196908 L116.67473,56.7196908 L117.755879,54.2601708 Z" id="Fill-50" fill="#494B52"></path>
                <polygon id="Fill-51" fill="#494B52" points="123.389093 53.5186295 123.389093 58.6340474 126.784919 58.6340474 126.784919 58.0888337 123.935663 58.0888337 123.935663 53.5186295"></polygon>
            </g>
        </g>
    </g>
</svg>